{"title":"Terminator.Genisys.2015.HDRip.HC.480p.x264.AAC-VYTO","uid":12208071,"size":507251354,"categoryP":"video","categoryS":"movies","magnet":"?xt=urn:btih:34c40732e77cb6e0cc6b51b2e663a6d922276f50&amp;dn=Terminator.Genisys.2015.HDRip.HC.480p.x264.AAC-VYTO&amp;tr=udp%3A%2F%2Ftracker.openbittorrent.com%3A80&amp;tr=udp%3A%2F%2Fopen.demonii.com%3A1337&amp;tr=udp%3A%2F%2Ftracker.coppersurfer.tk%3A6969&amp;tr=udp%3A%2F%2Fexodus.desync.com%3A6969","seeders":9,"leechers":9,"uploader":"ValidusVyto","files":6,"time":1439032455,"description":"____    ____ ____    ____ .___________.  ______   \n     /   /      /   / |           | /  __    \n    /   /      /   /  `---|  |----`|  |  |  | \n        /     _    _/       |  |     |  |  |  | \n       /        |  |         |  |     |  `--'  | \n    __/         |__|         |__|      ______/  \n                                                  \nPresenting Small Encodes with quality for years!\n                                                                                                   \n                                                                                                   \n\nTerminator.Genisys.2015.HDRip.HC.480p.x264.AAC-VYTO\n\n\nGenre: Action, Adventure, Sci-Fi  &lt;a href=&quot;\nhttp://www.imdb.com/title/tt1340138/&quot; rel=&quot;nofollow&quot; target=&quot;_NEW&quot;&gt;\nhttp://www.imdb.com/title/tt1340138/&lt;/a&gt;\n\n\nGeneral\nFormat                         : MPEG-4\nFile size                      : 476 MiB\nDuration                       : 2h 0mn\nOverall bit rate               : 553 Kbps\n\nVideo\nFormat                         : AVC\nBit rate                       : 510 Kbps\nWidth                          : 720 pixels\nHeight                         : 304 pixels\nDisplay aspect ratio           : 2.35:1\nFrame rate mode                : Constant\nFrame rate                     : 25.000 fps\nBit depth                      : 8 bits\nStream size                    : 439 MiB (92%)\nWriting library                : x264 core 148 r2579\n\nAudio\nFormat                         : AAC\nBit rate mode                  : Variable\nBit rate                       : 40.0 Kbps\nChannel(s)                     : 2 channels\nChannel positions              : Front: L R\nSampling rate                  : 48.0 KHz \nCompression mode               : Lossy\nStream size                    : 34.5 MiB (7%)\n\nScreenshots:\n &lt;a href=&quot;\nhttp://ititli.com/jJ&quot; rel=&quot;nofollow&quot; target=&quot;_NEW&quot;&gt;\nhttp://ititli.com/jJ&lt;/a&gt; &lt;a href=&quot;\nhttp://ititli.com/j5&quot; rel=&quot;nofollow&quot; target=&quot;_NEW&quot;&gt;\nhttp://ititli.com/j5&lt;/a&gt; &lt;a href=&quot;\nhttp://ititli.com/jB&quot; rel=&quot;nofollow&quot; target=&quot;_NEW&quot;&gt;\nhttp://ititli.com/jB&lt;/a&gt; &lt;a href=&quot;\nhttp://ititli.com/jN&quot; rel=&quot;nofollow&quot; target=&quot;_NEW&quot;&gt;\nhttp://ititli.com/jN&lt;/a&gt; &lt;a href=&quot;\nhttp://ititli.com/jP&quot; rel=&quot;nofollow&quot; target=&quot;_NEW&quot;&gt;\nhttp://ititli.com/jP&lt;/a&gt; &lt;a href=&quot;\nhttp://ititli.com/jf&quot; rel=&quot;nofollow&quot; target=&quot;_NEW&quot;&gt;\nhttp://ititli.com/jf&lt;/a&gt; &lt;a href=&quot;\nhttp://ititli.com/ju&quot; rel=&quot;nofollow&quot; target=&quot;_NEW&quot;&gt;\nhttp://ititli.com/ju&lt;/a&gt; &lt;a href=&quot;\nhttp://ititli.com/jv&quot; rel=&quot;nofollow&quot; target=&quot;_NEW&quot;&gt;\nhttp://ititli.com/jv&lt;/a&gt; &lt;a href=&quot;\nhttp://ititli.com/jR&quot; rel=&quot;nofollow&quot; target=&quot;_NEW&quot;&gt;\nhttp://ititli.com/jR&lt;/a&gt; &lt;a href=&quot;\nhttp://ititli.com/jy&quot; rel=&quot;nofollow&quot; target=&quot;_NEW&quot;&gt;\nhttp://ititli.com/jy&lt;/a&gt; &lt;a href=&quot;\nhttp://ititli.com/j3&quot; rel=&quot;nofollow&quot; target=&quot;_NEW&quot;&gt;\nhttp://ititli.com/j3&lt;/a&gt; &lt;a href=&quot;\nhttp://ititli.com/jE&quot; rel=&quot;nofollow&quot; target=&quot;_NEW&quot;&gt;\nhttp://ititli.com/jE&lt;/a&gt;\n\n----------------------------------------------------------------------------------------------------\n\n\nEncoder Notes: Looking For Early Access To Anything You Can Provide DVDScr, R5, DVDR, BluRay, Direct\nAudio, Music Releases and Seedboxes. If You Got anything to offer please contact us.\n\nSupport us by donating BC - 1FgwdzPsd1y25Gea8wP1qni35uGCtmkRCD","torrent":{"xt":"urn:btih:34c40732e77cb6e0cc6b51b2e663a6d922276f50","amp;dn":"Terminator.Genisys.2015.HDRip.HC.480p.x264.AAC-VYTO","amp;tr":["udp%3A%2F%2Ftracker.openbittorrent.com%3A80","udp%3A%2F%2Fopen.demonii.com%3A1337","udp%3A%2F%2Ftracker.coppersurfer.tk%3A6969","udp%3A%2F%2Fexodus.desync.com%3A6969"],"infoHash":"34c40732e77cb6e0cc6b51b2e663a6d922276f50","infoHashBuffer":{"type":"Buffer","data":[52,196,7,50,231,124,182,224,204,107,81,178,230,99,166,217,34,39,111,80]},"announce":[],"urlList":[]}}